PathFileType	4	(X/Y/Z)	C:/Users/beibeiliu/ov580/test_trc/User1\sequence.8_training_dense_right.trc
DataRate	CameraRate	NumFrames	NumMarkers	Units	OrigDataRate	OrigDataStartFrame	OrigNumFrames
120	120	8	19	mm	120	181	289
Frame#	Time	ThumbCMC			ThumbMCP			ThumbIP			ThumbTip			IndexMCP			IndexPIP			IndexTip			MiddleMCP			MiddlePIP			MiddleTip			RingMCP			RingPIP			RingTip			PinkyMCP			PinkyPIP			PinkyTip			BackHand1			BackHand2			BackHand3	
		X0	Y0	Z0	X1	Y1	Z1	X2	Y2	Z2	X3	Y3	Z3	X4	Y4	Z4	X5	Y5	Z5	X6	Y6	Z6	X7	Y7	Z7	X8	Y8	Z8	X9	Y9	Z9	X10	Y10	Z10	X11	Y11	Z11	X12	Y12	Z12	X13	Y13	Z13	X14	Y14	Z14	X15	Y15	Z15	X16	Y16	Z16	X17	Y17	Z17	X18	Y18	Z18	
180	1.5	152.801	63.9461	16.1285	136.812	45.6201	-1.17007	125.028	38.0903	-25.8274	106.571	30.903	-36.7628	182.997	32.2182	-53.1972	181.821	2.36818	-34.2268	169.857	21.1534	-6.96721	205.624	25.9452	-48.2512	195.729	1.08797	-27.5365	187.497	25.52	2.85242	220.753	24.0027	-35.0858	208.346	3.73888	-7.59914	200.123	27.6437	10.2184	238.962	28.1124	-19.0898	220.205	10.546	-2.02414	210.264	37.8088	13.9678	223.712	77.6745	-6.42669	214.64	91.474	31.9522	183.283	87.2206	5.43544	
181	1.50833	151.93	57.6154	14.4823	137.839	37.8491	-2.61973	125.716	28.3092	-20.4506	111.535	18.8334	-34.5088	183.532	26.1547	-52.8981	185.886	-1.31819	-32.9688	175.923	17.3367	-7.25048	210.908	26.1943	-46.9827	202.985	-1.4562	-24.8962	187.274	23.3071	3.2361	229.654	23.7675	-32.5076	216.091	2.84983	-7.09626	200.713	26.5867	9.49916	243.562	25.4928	-16.9066	224.344	12.3272	-0.0923431	209.667	34.9482	13.7377	216.825	78.2339	-4.02498	210.32	90.2648	28.0048	182.295	81.2982	5.95467	
182	1.51667	149.066	54.2268	16.2105	140.079	32.8513	2.1568	123.872	21.3103	-22.8837	110.423	10.8927	-33.3081	185.015	20.4654	-53.7661	190.688	-3.67155	-33.1379	180.64	15.3158	-6.79655	209.926	25.883	-47.033	208.642	-1.96084	-25.4886	188.185	22.4116	3.70689	227.432	25.4036	-34.0149	218.181	1.8982	-6.90016	206.699	28.3316	11.7717	244.388	26.1183	-17.9988	226.155	13.2381	-0.390223	210.323	34.8042	13.1349	217.045	78.4711	-7.73196	211.112	89.4969	30.6373	178.095	81.4716	4.30779	
183	1.525	152.119	52.0347	17.6045	139.402	28.9321	0.868022	123.858	18.0005	-17.5325	109.91	6.18596	-29.5359	186.062	25.0492	-52.6444	188.788	-4.79654	-36.0811	177.557	10.7436	-7.09365	212.333	25.1555	-46.4267	207.715	-2.8822	-23.3721	192.934	23.1483	3.30891	228.908	20.7401	-33.8709	217.092	2.81245	-6.89296	204.682	27.031	10.0763	246.424	30.6192	-17.0751	229.559	12.1125	0.320505	211.191	39.0343	11.8825	216.072	78.6391	-6.23598	208.78	89.004	31.0852	176.507	78.3693	3.8279	
184	1.53333	148.186	50.2327	16.047	139.204	28.2019	-0.0120727	123.231	15.417	-17.5942	111.545	4.12949	-28.3513	181.163	21.655	-53.4773	187.969	-5.24011	-35.0017	178.584	11.9089	-6.84779	209.596	23.4977	-48.1293	208.53	-1.37855	-27.0462	190.515	22.8028	3.70159	225.507	25.1062	-34.8334	214.957	2.62369	-10.95	205.185	28.1913	9.93982	241.287	32.4531	-20.4627	230.96	11.2837	-0.169957	214.176	35.6418	15.0596	212.137	77.0194	-5.23755	204.054	87.9255	27.4586	175.624	76.6212	6.00519	
185	1.54167	148.264	49.8313	20.1638	134.835	26.8499	6.15538	124.576	14.2987	-14.424	108.758	1.90735	-25.6644	179.167	21.171	-53.7857	185.677	-4.77729	-38.9091	174.983	15.4302	-6.13374	202.816	21.9495	-50.4156	203.464	-1.4114	-25.237	189.637	20.0057	1.11008	223.599	21.6901	-35.8329	218.148	2.77704	-13.6202	201.042	25.6225	8.39676	238.366	33.6138	-22.6649	226.142	12.434	-3.30741	213.024	34.5284	13.3108	210.117	76.9613	-7.68014	204.461	87.0695	32.2787	172.082	77.2563	8.43203	
186	1.55	146.204	50.2249	22.4702	132.604	26.6924	5.84179	121.426	13.8282	-15.6689	105.684	1.77253	-23.8698	173.554	25.4944	-53.081	180.296	-3.81305	-38.0209	172.072	14.0221	-8.06397	199.31	26.4704	-50.6517	198.801	-2.79127	-31.3212	185.122	22.1359	1.87515	222.284	23.1555	-37.5305	214.556	3.33357	-14.5157	199.542	24.7706	7.48846	240.055	29.7253	-23.2158	222.412	13.3336	-7.01745	207.593	34.5732	9.78222	207.837	77.4775	-4.76905	204.551	88.5243	30.5384	171.179	77.8245	4.11684	
187	1.55833	145.015	52.1905	23.323	133.401	28.4279	4.09405	117.841	14.8642	-11.486	102.232	3.0904	-21.271	174.137	29.3304	-53.7324	175.648	-3.43998	-38.2732	170.738	14.5619	-8.26421	197.91	27.8755	-50.4959	192.442	-1.2014	-28.7879	183.55	23.4626	0.247812	217.438	23.4451	-39.3739	208.511	2.75325	-18.1182	196.906	27.2099	7.27155	237.062	27.5247	-23.691	221.069	11.821	-3.6746	206.089	38.5177	11.4748	210.804	79.6552	-3.79302	203.871	87.9473	28.2452	171.193	78.4721	5.31223	
